<svg width="187" height="151" viewBox="0 0 187 151" fill="none" xmlns="http://www.w3.org/2000/svg">
<g id="card">
<path id="Vector 669" d="M94.1215 141.306L186.256 87.4162L86.1745 35.0161L0 87.4162L94.1215 141.306Z" fill="#44474E"/>
<path id="Vector 672" d="M94.1215 141.306L186.256 87.416V93.0239C186.256 94.7813 185.328 96.4078 183.814 97.3011L96.6196 148.772C95.0762 149.683 93.1616 149.692 91.6098 148.795L2.48185 97.2937C0.945989 96.4063 0 94.7671 0 92.9932V87.416L94.1215 141.306Z" fill="#2F323A"/>
<path id="Vector 670" d="M16.6387 86.1747L69.2871 54.1387L151.24 98.8402L95.363 131.87L16.6387 86.1747Z" fill="#3E4048"/>
<path id="Vector 671" d="M16.6387 86.1747L69.2871 54.1387L151.24 98.8402L144.518 102.814L69.2871 61.3406L22.5989 89.6343L16.6387 86.1747Z" fill="#4E5159"/>
<path id="Vector 673" d="M38.9893 78.7237C57.6149 75.4949 72.0187 77.2834 71.0253 88.4091C70.6705 92.3831 68.5419 98.4336 73.0121 101.075C79.2206 104.744 86.6708 104.303 95.3628 101.075C101.82 98.6768 109.022 95.8599 113.492 100.082C117.714 104.069 112.25 111.257 116.72 115.727" stroke="#FF664F" stroke-width="1.49005" stroke-linecap="round"/>
<g id="Group 1257">
<path id="Vector 666" d="M93.624 64.3205L107.283 55.6286V18.874L93.624 27.3176V64.3205Z" fill="#E85842"/>
<path id="Vector 668" d="M79.4688 55.6286V18.874L93.6242 27.3176V64.3205L79.4688 55.6286Z" fill="#FF7661"/>
<path id="Vector 667" d="M79.4688 18.8741L93.6242 10.1821L107.283 18.8741L93.6242 27.3177L79.4688 18.8741Z" fill="#FF664F"/>
</g>
<g id="Group 1258">
<path id="Vector 667_2" d="M105.296 68.7906V23.0957L119.451 31.5393V77.4825L105.296 68.7906Z" fill="#FDD147"/>
<path id="Vector 669_2" d="M119.453 77.4825L134.096 68.7906V23.0957L119.453 31.5393V77.4825Z" fill="#FFE9A3"/>
<path id="Vector 668_2" d="M105.296 23.0958L119.451 14.4038L134.095 23.0958L119.451 31.5394L105.296 23.0958Z" fill="#FDDC72"/>
</g>
<g id="Group 1259">
<path id="Vector 668_3" d="M132.614 84.6845V56.3735L146.77 64.8172V93.3764L132.614 84.6845Z" fill="#9FDA72"/>
<path id="Vector 670_2" d="M146.77 93.3766L160.428 84.6847V56.6221L146.77 64.8173V93.3766Z" fill="#85D67F"/>
<path id="Vector 669_3" d="M132.615 56.3738L146.771 47.9302L160.429 56.6221L146.771 64.8174L132.615 56.3738Z" fill="#95E089"/>
</g>
<g id="tag">
<path id="Vector 665" d="M107.283 11.1096V1.74017C107.283 0.971153 108.119 0.493786 108.782 0.884797L132.871 15.1089C133.173 15.2875 133.359 15.6128 133.359 15.9642V24.418C133.359 25.1684 132.559 25.6479 131.897 25.2939L123.195 20.6393C122.877 20.4694 122.492 20.4848 122.189 20.6797L120.088 22.0305C119.608 22.3391 118.967 22.1806 118.686 21.6837L116.104 17.1154C116.02 16.9658 115.898 16.8408 115.75 16.7524L107.765 11.9614C107.466 11.7819 107.283 11.4586 107.283 11.1096Z" fill="white"/>
<path id="Union" d="M110.031 8.81556L128.394 19.1223L128.378 16.7631L110.001 6.58105L110.031 8.81556Z" fill="#C0C0C0"/>
</g>
<g id="Group 1256">
<ellipse id="Ellipse 433" cx="112.498" cy="98.3434" rx="4.22181" ry="2.9801" fill="#FBFAFD"/>
<ellipse id="Ellipse 434" cx="112.499" cy="97.5984" rx="3.22844" ry="2.23507" fill="#FF8573"/>
</g>
</g>
</svg>
